<svg xmlns="http://www.w3.org/2000/svg" viewBox="349.6 101.2 22 19.6">
  <defs>
    <clipPath id="outline" clipPathUnits="userSpaceOnUse"><path d="m 370.9053,101.99393 0.03,0 0,0 -0.03,0 z m -1.76,-0.15 0.15,0.62 0.58,0 0.17,-0.05 0.45,-0.08 0.43,-0.34 0,0 0.02,0.6 -0.98,1.1 0.48,1.04 -1.43,0.37 0.28,0.4 -0.5,1.06 0.22,0.22 -0.18,0.95 0.57,0.58 -0.44,1.2 0.36,1.07 0.68,0.42 0.28,1.22 -0.4,0.19 -0.49,-0.24 -0.27,0.52 -0.74,0.26 0.52,1.11 -1.75,0.23 -0.07,0.53 -1,0.19 -1.96,1.6 -0.43,1.75 -0.91,1.66 -0.85,0.05 -0.51,-0.27 -0.63,-2.24 1.3,-0.71 2.09,-0.64 -0.19,-0.14 -1.69,-0.66 -1.3,-0.09 -0.7,0.47 -0.56,-0.69 -1.69,0.73 -0.17,-0.93 -1.13,-0.47 -0.43,-0.65 -0.78,0.28 -0.42,-0.33 -0.73,0.31 -0.66,-0.67 -0.6,0.14 -0.75,-0.27 -1.12,0.46 -0.86,-0.88 -0.2,-0.82 0,0 2.41,-1.44 0.3,-0.42 0.24,0.47 0.61,-0.01 0.3,-0.21 0.11,-0.04 1.35,-0.69 1.7,-1.03 0.2,-0.62 0.4,0.1 0.54,-0.6 0.62,-0.14 0.41,-0.67 0.39,0.49 0.34,-0.28 0.62,0.15 0.05,-0.01 0.39,0.18 0,-0.24 0.07,-0.11 0.35,0.42 0.01,-0.5 0.37,0.37 1.18,-0.69 1.21,-0.24 3,-2.46 0.15,-0.25 0.88,-0.61 0.74,-1.08 z"/></clipPath>
  </defs>
  <path id="cs-fond" d="m 370.9053,101.99393 0.03,0 0,0 -0.03,0 z m -1.76,-0.15 0.15,0.62 0.58,0 0.17,-0.05 0.45,-0.08 0.43,-0.34 0,0 0.02,0.6 -0.98,1.1 0.48,1.04 -1.43,0.37 0.28,0.4 -0.5,1.06 0.22,0.22 -0.18,0.95 0.57,0.58 -0.44,1.2 0.36,1.07 0.68,0.42 0.28,1.22 -0.4,0.19 -0.49,-0.24 -0.27,0.52 -0.74,0.26 0.52,1.11 -1.75,0.23 -0.07,0.53 -1,0.19 -1.96,1.6 -0.43,1.75 -0.91,1.66 -0.85,0.05 -0.51,-0.27 -0.63,-2.24 1.3,-0.71 2.09,-0.64 -0.19,-0.14 -1.69,-0.66 -1.3,-0.09 -0.7,0.47 -0.56,-0.69 -1.69,0.73 -0.17,-0.93 -1.13,-0.47 -0.43,-0.65 -0.78,0.28 -0.42,-0.33 -0.73,0.31 -0.66,-0.67 -0.6,0.14 -0.75,-0.27 -1.12,0.46 -0.86,-0.88 -0.2,-0.82 0,0 2.41,-1.44 0.3,-0.42 0.24,0.47 0.61,-0.01 0.3,-0.21 0.11,-0.04 1.35,-0.69 1.7,-1.03 0.2,-0.62 0.4,0.1 0.54,-0.6 0.62,-0.14 0.41,-0.67 0.39,0.49 0.34,-0.28 0.62,0.15 0.05,-0.01 0.39,0.18 0,-0.24 0.07,-0.11 0.35,0.42 0.01,-0.5 0.37,0.37 1.18,-0.69 1.21,-0.24 3,-2.46 0.15,-0.25 0.88,-0.61 0.74,-1.08 z" fill="#e8e2d4" stroke="#7d7566" stroke-width="0.12"/>
  <g clip-path="url(#outline)">
    <circle id="cs-peri"   cx="361.82" cy="108.2" r="7.6" fill="#cfe3d3"/>
    <circle id="cs-dense"  cx="361.82" cy="108.2" r="4.5" fill="#8fc0a0"/>
    <circle id="cs-centre" cx="361.82" cy="108.2" r="2.1" fill="#3f7a4e"/>
  </g>
  <path d="m 370.9053,101.99393 0.03,0 0,0 -0.03,0 z m -1.76,-0.15 0.15,0.62 0.58,0 0.17,-0.05 0.45,-0.08 0.43,-0.34 0,0 0.02,0.6 -0.98,1.1 0.48,1.04 -1.43,0.37 0.28,0.4 -0.5,1.06 0.22,0.22 -0.18,0.95 0.57,0.58 -0.44,1.2 0.36,1.07 0.68,0.42 0.28,1.22 -0.4,0.19 -0.49,-0.24 -0.27,0.52 -0.74,0.26 0.52,1.11 -1.75,0.23 -0.07,0.53 -1,0.19 -1.96,1.6 -0.43,1.75 -0.91,1.66 -0.85,0.05 -0.51,-0.27 -0.63,-2.24 1.3,-0.71 2.09,-0.64 -0.19,-0.14 -1.69,-0.66 -1.3,-0.09 -0.7,0.47 -0.56,-0.69 -1.69,0.73 -0.17,-0.93 -1.13,-0.47 -0.43,-0.65 -0.78,0.28 -0.42,-0.33 -0.73,0.31 -0.66,-0.67 -0.6,0.14 -0.75,-0.27 -1.12,0.46 -0.86,-0.88 -0.2,-0.82 0,0 2.41,-1.44 0.3,-0.42 0.24,0.47 0.61,-0.01 0.3,-0.21 0.11,-0.04 1.35,-0.69 1.7,-1.03 0.2,-0.62 0.4,0.1 0.54,-0.6 0.62,-0.14 0.41,-0.67 0.39,0.49 0.34,-0.28 0.62,0.15 0.05,-0.01 0.39,0.18 0,-0.24 0.07,-0.11 0.35,0.42 0.01,-0.5 0.37,0.37 1.18,-0.69 1.21,-0.24 3,-2.46 0.15,-0.25 0.88,-0.61 0.74,-1.08 z" fill="none" stroke="#4a4438" stroke-width="0.16"/>
  <circle id="cs-port" cx="360.92" cy="108.40" r="0.75"
    fill="#c0392b" stroke="#fff" stroke-width="0.16"/>
  <circle id="cs-mohammedia" cx="369.69" cy="103.04" r="0.6"
    fill="#2E5CB8" stroke="#fff" stroke-width="0.14"/>
</svg>
